<svg width="7" height="7" viewBox="0 0 7 7" fill="none" xmlns="http://www.w3.org/2000/svg">
<path fill-rule="evenodd" clip-rule="evenodd" d="M0.11358 0.123432C0.186399 0.0508075 0.28511 0.0100149 0.388028 0.0100149C0.490946 0.0100149 0.589656 0.0508075 0.662476 0.123432L3.49499 2.95189L6.32749 0.123432C6.36305 0.08533 6.40593 0.0547692 6.45357 0.0335728C6.50121 0.0123765 6.55263 0.000979105 6.60478 6.03555e-05C6.65693 -0.000858394 6.70872 0.0087203 6.75708 0.0282253C6.80544 0.0477303 6.84937 0.0767618 6.88625 0.113588C6.92313 0.150414 6.9522 0.19428 6.97173 0.24257C6.99127 0.29086 7.00086 0.342583 6.99994 0.394655C6.99902 0.446727 6.98761 0.498081 6.96638 0.545652C6.94515 0.593224 6.91455 0.636039 6.87639 0.671543L4.04388 3.5L6.87639 6.32846C6.91455 6.36396 6.94515 6.40678 6.96638 6.45435C6.98761 6.50192 6.99902 6.55327 6.99994 6.60535C7.00086 6.65742 6.99127 6.70914 6.97173 6.75743C6.9522 6.80572 6.92313 6.84959 6.88625 6.88641C6.84937 6.92324 6.80544 6.95227 6.75708 6.97178C6.70872 6.99128 6.65693 7.00086 6.60478 6.99994C6.55263 6.99902 6.50121 6.98762 6.45357 6.96643C6.40593 6.94523 6.36305 6.91467 6.32749 6.87657L3.49499 4.04811L0.662476 6.87657C0.588854 6.94507 0.491479 6.98237 0.390864 6.98059C0.29025 6.97882 0.194253 6.93812 0.123097 6.86707C0.0519406 6.79601 0.0111816 6.70015 0.00940637 6.59968C0.00763115 6.49921 0.0449783 6.40197 0.11358 6.32846L2.94609 3.5L0.11358 0.671543C0.040851 0.598828 0 0.500259 0 0.397488C0 0.294717 0.040851 0.196148 0.11358 0.123432Z" fill="white" fill-opacity="0.5"/>
</svg>
