<svg width="11" height="12" viewBox="0 0 11 12" fill="none" xmlns="http://www.w3.org/2000/svg">
<path d="M1.50453 6.75453V0.549988M1.50453 6.75453C1.75769 6.75453 2.00049 6.8551 2.1795 7.03411C2.35851 7.21312 2.45908 7.45592 2.45908 7.70908C2.45908 7.96224 2.35851 8.20503 2.1795 8.38404C2.00049 8.56306 1.75769 8.66362 1.50453 8.66362M1.50453 6.75453C1.25137 6.75453 1.00858 6.8551 0.829568 7.03411C0.650556 7.21312 0.549988 7.45592 0.549988 7.70908C0.549988 7.96224 0.650556 8.20503 0.829568 8.38404C1.00858 8.56306 1.25137 8.66362 1.50453 8.66362M1.50453 8.66362V11.05M9.1409 6.75453V0.549988M9.1409 6.75453C9.39406 6.75453 9.63685 6.8551 9.81586 7.03411C9.99487 7.21312 10.0954 7.45592 10.0954 7.70908C10.0954 7.96224 9.99487 8.20503 9.81586 8.38404C9.63685 8.56306 9.39406 8.66362 9.1409 8.66362M9.1409 6.75453C8.88774 6.75453 8.64494 6.8551 8.46593 7.03411C8.28692 7.21312 8.18635 7.45592 8.18635 7.70908C8.18635 7.96224 8.28692 8.20503 8.46593 8.38404C8.64494 8.56306 8.88774 8.66362 9.1409 8.66362M9.1409 8.66362V11.05M5.32271 2.93635V0.549988M5.32271 2.93635C5.57588 2.93635 5.81867 3.03692 5.99768 3.21593C6.17669 3.39494 6.27726 3.63774 6.27726 3.8909C6.27726 4.14406 6.17669 4.38685 5.99768 4.56586C5.81867 4.74487 5.57588 4.84544 5.32271 4.84544M5.32271 2.93635C5.06955 2.93635 4.82676 3.03692 4.64775 3.21593C4.46874 3.39494 4.36817 3.63774 4.36817 3.8909C4.36817 4.14406 4.46874 4.38685 4.64775 4.56586C4.82676 4.74487 5.06955 4.84544 5.32271 4.84544M5.32271 4.84544V11.05" stroke="#757575" stroke-width="1.1" stroke-linecap="round" stroke-linejoin="round"/>
</svg>
