<svg width="117" height="35" viewBox="0 0 117 35" fill="none" xmlns="http://www.w3.org/2000/svg">
<rect x="9.49121" y="21.4851" width="4.23344" height="7.67793" rx="2.11672" transform="rotate(-45 9.49121 21.4851)" fill="white"/>
<rect x="24.3066" y="18.4905" width="4.23344" height="7.67991" rx="2.11672" transform="rotate(45 24.3066 18.4905)" fill="white"/>
<path d="M13.0645 5.19531C15.4347 1.09061 21.3593 1.09052 23.7295 5.19531L33.8398 22.707C36.2096 26.8121 33.2469 31.9434 28.5068 31.9434H8.28711C3.54697 31.9434 0.584252 26.8121 2.9541 22.707L13.0645 5.19531Z" stroke="white" stroke-width="4.23345" stroke-linejoin="round"/>
<path d="M53.1533 3.39551C54.2625 3.39568 55.1621 4.29505 55.1621 5.4043V22.5469C55.1621 23.5035 55.4985 24.3177 56.1729 24.9922C56.8475 25.6668 57.6556 26.0038 58.5996 26.0039H71.792C72.9013 26.0039 73.8008 26.9033 73.8008 28.0127C73.8007 29.122 72.9013 30.0215 71.792 30.0215H58.5996C57.3209 30.0214 56.1401 29.7299 55.0586 29.1465L54.8438 29.0254C53.7175 28.3496 52.8154 27.4485 52.1396 26.3223V26.3213C51.476 25.1817 51.1445 23.9232 51.1445 22.5469V5.4043C51.1445 4.29494 52.044 3.39551 53.1533 3.39551ZM109.094 3.39551C110.333 3.39555 111.455 3.69003 112.458 4.2793C113.46 4.86795 114.256 5.65692 114.845 6.64648L114.954 6.83398C115.483 7.77662 115.747 8.82419 115.747 9.97461V11.709C115.747 13.4206 115.261 14.7325 114.283 15.6387C115.145 16.2075 115.775 16.8849 116.17 17.6738H116.171C116.573 18.4663 116.773 19.4578 116.773 20.6445V23.5732C116.773 24.7511 116.472 25.8296 115.87 26.8076C115.281 27.7847 114.485 28.5677 113.483 29.1562C112.481 29.7328 111.372 30.0214 110.157 30.0215H100.571C97.5339 30.0215 95.0713 27.5588 95.0713 24.5215V8.89453C95.0715 5.85736 97.5341 3.39551 100.571 3.39551H109.094ZM100.42 7.41309C99.6953 7.41316 99.1077 8.00004 99.1074 8.72461V24.6729C99.1074 25.3976 99.6952 25.9853 100.42 25.9854H110.194C110.903 25.9853 111.506 25.7472 112.006 25.2715C112.506 24.7833 112.756 24.1991 112.756 23.5166V20.5879C112.756 19.9055 112.506 19.3212 112.006 18.833C111.506 18.3452 110.897 18.1016 110.176 18.1016H104.658C103.878 18.1014 103.246 17.4684 103.246 16.6885V15.4961C103.246 14.7163 103.878 14.0842 104.658 14.084H109.094C109.816 14.0839 110.432 13.8515 110.944 13.3877C111.469 12.9117 111.729 12.3406 111.729 11.6719V9.97461C111.729 9.26754 111.468 8.66469 110.943 8.16406L110.942 8.16309C110.43 7.66257 109.814 7.41314 109.094 7.41309H100.42Z" fill="white" stroke="white" stroke-width="0.1"/>
<path d="M80.0684 3.2207C81.0644 3.22074 81.9623 3.81905 82.335 4.73535L91.5791 27.4639C91.6638 27.6721 91.707 27.8946 91.707 28.1191C91.707 29.0916 90.9103 29.8759 89.9326 29.876H70.168C69.1909 29.8758 68.3945 29.0921 68.3945 28.1201C68.3946 27.8948 68.4382 27.6717 68.5234 27.4629L77.8027 4.73242C78.1762 3.81763 79.0734 3.2207 80.0684 3.2207ZM80.0732 8.07324C79.9889 8.07457 79.9172 8.12177 79.8906 8.20312C79.8677 8.27349 79.8442 8.34423 79.8203 8.41504C79.6711 8.90582 79.509 9.36132 79.334 9.78125C79.1879 10.1902 79.066 10.5389 78.9688 10.8271L78.9658 10.8379H78.9648L73.3682 24.9365C73.0782 25.6677 73.6227 26.4658 74.4277 26.4658H85.6543C86.4555 26.4657 86.9998 25.6743 86.7168 24.9443L81.2471 10.8369L81.2461 10.835C81.1723 10.6407 81.0371 10.2879 80.8398 9.77637C80.6421 9.26358 80.4448 8.73824 80.2471 8.20117L80.2422 8.18945V8.18848C80.2185 8.11362 80.1555 8.07204 80.0732 8.07324Z" fill="white" stroke="white" stroke-width="0.45"/>
</svg>
