<svg width="126" height="36" viewBox="0 0 126 36" fill="none" xmlns="http://www.w3.org/2000/svg">
<path d="M47.486 2.86559V7.24021L52.32 2.86559H54.3624L48.8782 7.83386L54.5815 13H52.539L47.486 8.44164V13H46.0372V2.86559H47.486ZM56.5744 2.86559L59.5215 7.60064L62.4756 2.86559H64.1576L60.2494 8.97875V13H58.8006V8.97875L54.8924 2.86559H56.5744ZM67.2035 13H65.7548V2.86559H67.2035L73.2955 10.7244V2.86559H74.7443V13H73.2955L67.2035 5.14124V13ZM78.7938 8.66072C78.5959 8.66072 78.4074 8.62303 78.2284 8.54765C78.0541 8.46755 77.901 8.3639 77.769 8.23669C77.6371 8.10477 77.5335 7.95164 77.4581 7.77732C77.3827 7.59828 77.345 7.40982 77.345 7.21194V4.31438C77.345 4.11649 77.3827 3.93039 77.4581 3.75606C77.5335 3.57703 77.6371 3.42391 77.769 3.2967C77.901 3.16477 78.0541 3.06112 78.2284 2.98574C78.4074 2.90564 78.5959 2.86559 78.7938 2.86559H83.7126C83.9105 2.86559 84.0966 2.90564 84.2709 2.98574C84.4499 3.06112 84.6054 3.16477 84.7373 3.2967C84.8693 3.42391 84.9729 3.57703 85.0483 3.75606C85.1237 3.93039 85.1614 4.11649 85.1614 4.31438V5.62181H83.7126V4.31438H78.7938V7.21194H83.7126C83.9105 7.21194 84.0966 7.24963 84.2709 7.32502C84.4499 7.4004 84.6054 7.50405 84.7373 7.63597C84.8693 7.7679 84.9729 7.92337 85.0483 8.10241C85.1237 8.27674 85.1614 8.46284 85.1614 8.66072V11.5512C85.1614 11.7491 85.1237 11.9376 85.0483 12.1166C84.9729 12.2909 84.8693 12.444 84.7373 12.576C84.6054 12.7079 84.4499 12.8115 84.2709 12.8869C84.0966 12.9623 83.9105 13 83.7126 13H78.6524C78.4546 13 78.2661 12.9623 78.0871 12.8869C77.9127 12.8115 77.7596 12.7079 77.6277 12.576C77.4958 12.444 77.3921 12.2909 77.3167 12.1166C77.2414 11.9376 77.2037 11.7491 77.2037 11.5512V10.2508H78.6524V11.5512H83.7126V8.66072H78.7938ZM92.2639 2.86559L96.1721 13H94.7233L93.8258 10.6678H89.2533L88.3558 13H86.907L90.8151 2.86559H92.2639ZM89.8045 9.21903H93.2675L91.5431 4.75254L89.8045 9.21903ZM97.9106 2.86559H105.296V4.31438H99.3594V7.21194H104.427V8.66072H99.3594V11.5512H105.296V13H97.9106V2.86559Z" fill="#757575"/>
<path d="M45.2855 18.1017H55.6024V19.9456H51.3659V31H49.522V19.9456H45.2855V18.1017ZM68.8875 18.1017V31H67.0436V25.4773H59.6589V31H57.815V18.1017H59.6589V23.6334H67.0436V18.1017H68.8875ZM72.2065 18.1017H81.6059V19.9456H74.0504V23.6334H80.4996V25.4773H74.0504V29.1561H81.6059V31H72.2065V18.1017ZM91.7339 18.1017V29.1561H98.3629V31H89.89V18.1017H91.7339ZM106.287 18.1017L111.261 31H109.417L108.275 28.0318H102.456L101.313 31H99.4693L104.443 18.1017H106.287ZM103.157 26.1879H107.564L105.37 20.5032L103.157 26.1879ZM121.875 24.272C122.145 24.3559 122.391 24.4759 122.613 24.6318C122.834 24.7877 123.023 24.9886 123.179 25.2344C123.335 25.4743 123.455 25.7591 123.539 26.0889C123.623 26.4187 123.665 26.7965 123.665 27.2222V27.8699C123.665 29.9566 122.622 31 120.535 31H113.474V18.1017H120.166C122.253 18.1017 123.296 19.148 123.296 21.2408V21.4747C123.296 22.2002 123.179 22.7939 122.945 23.2556C122.717 23.7113 122.361 24.0501 121.875 24.272ZM115.282 25.3783V29.1921H120.481C120.967 29.1921 121.317 29.0781 121.533 28.8503C121.749 28.6224 121.857 28.2656 121.857 27.7799V26.7815C121.857 26.2898 121.749 25.933 121.533 25.7111C121.317 25.4893 120.967 25.3783 120.481 25.3783H115.282ZM115.282 19.9096V23.5794H120.238C120.682 23.5614 120.999 23.4415 121.191 23.2196C121.389 22.9918 121.488 22.644 121.488 22.1762V21.3307C121.488 20.839 121.38 20.4793 121.164 20.2514C120.949 20.0235 120.598 19.9096 120.112 19.9096H115.282Z" fill="white"/>
<rect x="9.16797" y="22.0656" width="4.08861" height="7.41525" rx="2.0443" transform="rotate(-45 9.16797 22.0656)" fill="white"/>
<rect x="23.4761" y="19.1732" width="4.08861" height="7.41717" rx="2.0443" transform="rotate(45 23.4761 19.1732)" fill="white"/>
<path d="M12.6172 6.33337C14.9063 2.36892 20.6289 2.36883 22.918 6.33337L32.6816 23.2455C34.9707 27.2102 32.1093 32.1664 27.5312 32.1664H8.00293C3.42512 32.1661 0.563671 27.2101 2.85254 23.2455L12.6172 6.33337Z" stroke="white" stroke-width="4.08861" stroke-linejoin="round"/>
</svg>
