<svg width="167" height="40" viewBox="0 0 167 40" fill="none" xmlns="http://www.w3.org/2000/svg">
<circle cx="20" cy="20" r="17.4737" stroke="white" stroke-width="5.05263"/>
<rect x="14.054" y="15.1354" width="4.32432" height="11.8919" rx="2.16216" fill="white"/>
<rect x="21.6218" y="12.9728" width="4.32432" height="11.8919" rx="2.16216" fill="white"/>
<path d="M76.4841 9.11102V25.9138H86.5603V28.7165H73.6814V9.11102H76.4841ZM118.205 9.11102L125.766 28.7165H122.963L121.227 24.2048H112.381L110.645 28.7165H107.842L115.402 9.11102H118.205ZM113.447 21.402H120.147L116.811 12.7614L113.447 21.402ZM161.499 18.4899C161.909 18.6175 162.282 18.7998 162.62 19.0368C162.957 19.2738 163.244 19.5791 163.481 19.9528C163.718 20.3174 163.9 20.7503 164.028 21.2516C164.155 21.753 164.219 22.3272 164.219 22.9743V23.9587C164.219 27.1306 162.633 28.7165 159.461 28.7165H148.729V9.11102H158.901C162.073 9.11102 163.659 10.7015 163.659 13.8825V14.238C163.659 15.3408 163.481 16.2432 163.126 16.945C162.779 17.6377 162.237 18.1527 161.499 18.4899ZM151.477 20.1716V25.9684H159.379C160.118 25.9684 160.651 25.7953 160.979 25.4489C161.307 25.1026 161.471 24.5602 161.471 23.822V22.3044C161.471 21.557 161.307 21.0147 160.979 20.6774C160.651 20.3402 160.118 20.1716 159.379 20.1716H151.477ZM151.477 11.8591V17.4372H159.01C159.685 17.4099 160.168 17.2276 160.46 16.8903C160.76 16.544 160.911 16.0153 160.911 15.3044V14.0192C160.911 13.2718 160.747 12.725 160.419 12.3786C160.09 12.0322 159.557 11.8591 158.819 11.8591H151.477Z" fill="white"/>
</svg>
