<svg width="95" height="28" viewBox="0 0 95 28" fill="none" xmlns="http://www.w3.org/2000/svg">
<path d="M34.736 10V4.16H35.456V6.664H36.32L37.616 4.16H38.4L36.952 6.968L38.48 10H37.656L36.296 7.296H35.456V10H34.736ZM40.8369 10V7.816L39.0769 4.16H39.8209L40.9809 6.56C41.0449 6.69333 41.0955 6.808 41.1329 6.904C41.1702 6.99467 41.1942 7.06133 41.2049 7.104C41.2155 7.06133 41.2395 6.99467 41.2769 6.904C41.3195 6.808 41.3729 6.69333 41.4369 6.56L42.5729 4.16H43.3169L41.5569 7.816V10H40.8369ZM44.3138 10V4.16H45.2738L47.0578 9.16C47.0471 9.02667 47.0338 8.864 47.0178 8.672C47.0071 8.47467 46.9964 8.26933 46.9858 8.056C46.9804 7.83733 46.9778 7.632 46.9778 7.44V4.16H47.6738V10H46.7138L44.9378 5C44.9484 5.128 44.9591 5.29067 44.9698 5.488C44.9804 5.68 44.9884 5.88533 44.9938 6.104C45.0044 6.31733 45.0098 6.52267 45.0098 6.72V10H44.3138ZM50.8226 10.08C50.4386 10.08 50.108 10.016 49.8306 9.888C49.5586 9.76 49.348 9.576 49.1986 9.336C49.0493 9.096 48.972 8.81067 48.9666 8.48H49.6866C49.6866 8.77333 49.7853 9.00533 49.9826 9.176C50.1853 9.34667 50.4653 9.432 50.8226 9.432C51.1586 9.432 51.42 9.34933 51.6066 9.184C51.7986 9.01867 51.8946 8.78933 51.8946 8.496C51.8946 8.26133 51.8306 8.056 51.7026 7.88C51.58 7.704 51.4013 7.58133 51.1666 7.512L50.3746 7.264C49.9746 7.14133 49.6653 6.936 49.4466 6.648C49.2333 6.36 49.1266 6.02133 49.1266 5.632C49.1266 5.31733 49.196 5.04533 49.3346 4.816C49.4786 4.58133 49.6786 4.4 49.9346 4.272C50.1906 4.13867 50.492 4.072 50.8386 4.072C51.3506 4.072 51.7613 4.216 52.0706 4.504C52.38 4.78667 52.5373 5.16533 52.5426 5.64H51.8226C51.8226 5.352 51.7346 5.128 51.5586 4.968C51.388 4.80267 51.1453 4.72 50.8306 4.72C50.5213 4.72 50.2786 4.79467 50.1026 4.944C49.932 5.09333 49.8466 5.30133 49.8466 5.568C49.8466 5.808 49.9106 6.016 50.0386 6.192C50.1666 6.368 50.3506 6.49333 50.5906 6.568L51.3906 6.824C51.78 6.94667 52.0813 7.15467 52.2946 7.448C52.508 7.74133 52.6146 8.08533 52.6146 8.48C52.6146 8.8 52.54 9.08 52.3906 9.32C52.2413 9.56 52.0306 9.74667 51.7586 9.88C51.492 10.0133 51.18 10.08 50.8226 10.08ZM53.5875 10L55.1075 4.16H56.0755L57.5875 10H56.8595L56.4755 8.448H54.7075L54.3235 10H53.5875ZM54.8515 7.84H56.3235L55.8755 6.04C55.7902 5.69867 55.7235 5.41333 55.6755 5.184C55.6275 4.95467 55.5982 4.80533 55.5875 4.736C55.5768 4.80533 55.5475 4.95467 55.4995 5.184C55.4515 5.41333 55.3848 5.696 55.2995 6.032L54.8515 7.84ZM58.7844 10V4.16H62.1444V4.816H59.4964V6.624H61.8644V7.272H59.4964V9.344H62.1444V10H58.7844ZM34.417 14.1973H42.2578V15.5986H39.0381V24H37.6367V15.5986H34.417V14.1973ZM52.3545 14.1973V24H50.9531V19.8027H45.3408V24H43.9395V14.1973H45.3408V18.4014H50.9531V14.1973H52.3545ZM54.877 14.1973H62.0205V15.5986H56.2783V18.4014H61.1797V19.8027H56.2783V22.5986H62.0205V24H54.877V14.1973ZM69.7178 14.1973V22.5986H74.7559V24H68.3164V14.1973H69.7178ZM80.7783 14.1973L84.5586 24H83.1572L82.2891 21.7441H77.8662L76.998 24H75.5967L79.377 14.1973H80.7783ZM78.3994 20.3428H81.749L80.0811 16.0225L78.3994 20.3428ZM92.625 18.8867C92.8301 18.9505 93.0169 19.0417 93.1855 19.1602C93.3542 19.2786 93.4977 19.4313 93.6162 19.6182C93.7347 19.8005 93.8258 20.0169 93.8896 20.2676C93.9535 20.5182 93.9854 20.8053 93.9854 21.1289V21.6211C93.9854 23.207 93.1924 24 91.6064 24H86.2402V14.1973H91.3262C92.9121 14.1973 93.7051 14.9925 93.7051 16.583V16.7607C93.7051 17.3122 93.6162 17.7633 93.4385 18.1143C93.2653 18.4606 92.9941 18.7181 92.625 18.8867ZM87.6143 19.7275V22.626H91.5654C91.9346 22.626 92.2012 22.5394 92.3652 22.3662C92.5293 22.193 92.6113 21.9219 92.6113 21.5527V20.7939C92.6113 20.4202 92.5293 20.1491 92.3652 19.9805C92.2012 19.8118 91.9346 19.7275 91.5654 19.7275H87.6143ZM87.6143 15.5713V18.3604H91.3809C91.7181 18.3467 91.9596 18.2555 92.1055 18.0869C92.2559 17.9137 92.3311 17.6494 92.3311 17.2939V16.6514C92.3311 16.2777 92.249 16.0042 92.085 15.8311C91.9209 15.6579 91.6543 15.5713 91.2852 15.5713H87.6143Z" fill="white"/>
<rect x="6.96777" y="17.2699" width="3.10734" height="5.63559" rx="1.55367" transform="rotate(-45 6.96777 17.2699)" fill="white"/>
<rect x="17.8418" y="15.0717" width="3.10734" height="5.63705" rx="1.55367" transform="rotate(45 17.8418 15.0717)" fill="white"/>
<path d="M9.58887 5.31348C11.3285 2.3003 15.6783 2.30029 17.418 5.31348L24.8379 18.167C26.5775 21.1802 24.4031 24.9463 20.9238 24.9463H6.08203C2.60313 24.9459 0.428785 21.18 2.16797 18.167L9.58887 5.31348Z" stroke="white" stroke-width="3.10734" stroke-linejoin="round"/>
</svg>
